<svg width="65" height="65" viewBox="0 0 65 65" fill="none" xmlns="http://www.w3.org/2000/svg">
<path d="M29.4531 52.2709L11.5781 34.3959C11.3073 34.1251 11.115 33.8317 11.0012 33.5157C10.8875 33.1997 10.8315 32.8612 10.8333 32.5001C10.8333 32.139 10.8902 31.8004 11.0039 31.4844C11.1177 31.1685 11.3091 30.8751 11.5781 30.6042L29.4531 12.7292C29.9496 12.2327 30.5707 11.9736 31.3164 11.9519C32.0621 11.9303 32.7049 12.1894 33.2448 12.7292C33.7864 13.2258 34.069 13.8469 34.0925 14.5926C34.1159 15.3383 33.8559 15.981 33.3125 16.5209L20.0416 29.7917H50.3073C51.0746 29.7917 51.7183 30.0517 52.2383 30.5717C52.7583 31.0917 53.0174 31.7345 53.0156 32.5001C53.0156 33.2674 52.7565 33.9111 52.2383 34.4311C51.7201 34.9511 51.0764 35.2102 50.3073 35.2084H20.0416L33.3125 48.4792C33.809 48.9758 34.069 49.6077 34.0925 50.3751C34.1159 51.1424 33.8559 51.7744 33.3125 52.2709C32.8159 52.8126 32.184 53.0834 31.4166 53.0834C30.6493 53.0834 29.9948 52.8126 29.4531 52.2709Z" fill="white"/>
</svg>
